<svg width="60" height="60" viewBox="0 0 60 60" fill="none" xmlns="http://www.w3.org/2000/svg">
<path opacity="0.21" d="M37 0C49.7025 0 60 10.2975 60 23V37C60 49.7025 49.7025 60 37 60H23C10.2975 60 0 49.7025 0 37V23C0 10.2975 10.2975 0 23 0H37Z" fill="#FEC53D"/>
<path fill-rule="evenodd" clip-rule="evenodd" d="M15 24.3164L27.9005 31.7645C28.0394 31.8447 28.1851 31.9026 28.3333 31.9394V46.3846L15.9201 39.0385C15.3498 38.701 15 38.0875 15 37.4248V24.3164ZM45 24.1184V37.4248C45 38.0875 44.6502 38.701 44.0799 39.0385L31.6667 46.3846V31.8129C31.6969 31.7978 31.7269 31.7816 31.7566 31.7645L45 24.1184Z" fill="#FEC53D"/>
<path opacity="0.499209" fill-rule="evenodd" clip-rule="evenodd" d="M15.4053 20.7014C15.5628 20.5024 15.7617 20.3343 15.9936 20.2108L29.1186 13.2201C29.6696 12.9266 30.3305 12.9266 30.8815 13.2201L44.0065 20.2108C44.1852 20.306 44.3444 20.4277 44.4801 20.5697L30.0899 28.8778C29.9953 28.9325 29.9081 28.995 29.8286 29.064C29.7491 28.995 29.6618 28.9325 29.5672 28.8778L15.4053 20.7014Z" fill="#FEC53D"/>
</svg>
