<svg width="24" height="24" viewBox="0 0 24 24" fill="none" xmlns="http://www.w3.org/2000/svg">
<g opacity="0.700291">
<rect opacity="0.01" width="24" height="24" fill="black"/>
<path d="M12 13C12.5523 13 13 12.5523 13 12V2C13 1.44772 12.5523 1 12 1C11.4477 1 11 1.44772 11 2V12C11 12.5523 11.4477 13 12 13Z" fill="black"/>
<path d="M16.59 3.1101C16.0985 2.85605 15.494 3.04857 15.24 3.5401C14.9859 4.03164 15.1785 4.63605 15.67 4.8901C18.9496 6.5833 20.6451 10.3004 19.7739 13.887C18.9027 17.4736 15.6909 19.9986 12 19.9986C8.3091 19.9986 5.09727 17.4736 4.22605 13.887C3.35484 10.3004 5.05039 6.5833 8.32999 4.8901C8.64796 4.72576 8.85409 4.40427 8.87075 4.04673C8.88741 3.68919 8.71206 3.34993 8.41075 3.15673C8.10944 2.96354 7.72796 2.94576 7.40999 3.1101C3.31155 5.22751 1.19337 9.87371 2.2829 14.3563C3.37243 18.8389 7.3869 21.9945 12 21.9945C16.6131 21.9945 20.6276 18.8389 21.7171 14.3563C22.8066 9.87371 20.6884 5.22751 16.59 3.1101Z" fill="black"/>
</g>
</svg>
