<svg width="60" height="60" viewBox="0 0 60 60" fill="none" xmlns="http://www.w3.org/2000/svg">
<path opacity="0.3" d="M37 0C49.7025 0 60 10.2975 60 23V37C60 49.7025 49.7025 60 37 60H23C10.2975 60 0 49.7025 0 37V23C0 10.2975 10.2975 0 23 0H37Z" fill="#FF9066"/>
<path opacity="0.78" fill-rule="evenodd" clip-rule="evenodd" d="M28.6312 23.8089C28.6512 23.5484 28.8684 23.3473 29.1297 23.3473H29.5475C29.8044 23.3473 30.0195 23.5419 30.045 23.7975L30.6667 30.014L35.0814 32.5367C35.2372 32.6257 35.3333 32.7914 35.3333 32.9708V33.3593C35.3333 33.689 35.0199 33.9285 34.7018 33.8417L28.3987 32.1227C28.1673 32.0596 28.0133 31.8411 28.0317 31.602L28.6312 23.8089Z" fill="#FF9066"/>
<path opacity="0.901274" d="M21.8525 15.1902C21.9479 14.7906 22.4575 14.6696 22.7217 14.9841L24.5205 17.1287C26.2036 16.412 28.0552 16.0134 30 16.0134C37.7319 16.0134 43.9998 22.2816 44 30.0134C44 37.7454 37.732 44.0134 30 44.0134C22.268 44.0134 16 37.7454 16 30.0134C16 28.7004 16.1805 27.4294 16.5186 26.2244L19.0859 26.9451C18.8086 27.934 18.667 28.963 18.667 30.0134C18.667 36.2727 23.7408 41.3474 30 41.3474C36.2592 41.3474 41.333 36.2727 41.333 30.0134C41.3328 23.7544 36.2591 18.6804 30 18.6804C28.7318 18.6804 27.4968 18.8889 26.332 19.2869L28.1328 21.4334C28.3974 21.7486 28.1892 22.2304 27.7783 22.2537L20.7334 22.6531C20.3992 22.6719 20.1411 22.3634 20.2188 22.0379L21.8525 15.1902Z" fill="#FF9066"/>
</svg>
