<svg width="21" height="17" viewBox="0 0 21 17" fill="none" xmlns="http://www.w3.org/2000/svg">
<path d="M18.707 1.01562L19.2227 3.9375H17.8047L17.5898 2.60547L9.8125 3.9375H1.64844L18.707 1.01562ZM0.875 4.625H1.5625H2.59375H19.4375H20.125V5.3125V14.9375V15.625H19.4375H1.5625H0.875V14.9375V6.34375V5.3125V4.625ZM4.26953 6C4.29818 6.14323 4.3125 6.25781 4.3125 6.34375C4.3125 6.83073 4.14062 7.24609 3.79688 7.58984C3.48177 7.90495 3.08073 8.0625 2.59375 8.0625C2.50781 8.0625 2.39323 8.04818 2.25 8.01953V12.2305C2.39323 12.2018 2.50781 12.1875 2.59375 12.1875C3.08073 12.1875 3.48177 12.3594 3.79688 12.7031C4.14062 13.0182 4.3125 13.4193 4.3125 13.9062C4.3125 13.9922 4.29818 14.1068 4.26953 14.25H16.7305C16.7018 14.1068 16.6875 13.9922 16.6875 13.9062C16.6875 13.4193 16.8451 13.0182 17.1602 12.7031C17.5039 12.3594 17.9193 12.1875 18.4062 12.1875C18.4922 12.1875 18.6068 12.2018 18.75 12.2305V8.01953C18.6068 8.04818 18.4922 8.0625 18.4062 8.0625C17.9193 8.0625 17.5039 7.90495 17.1602 7.58984C16.8451 7.24609 16.6875 6.83073 16.6875 6.34375C16.6875 6.25781 16.7018 6.14323 16.7305 6H4.26953ZM8.05078 7.71875C8.73828 7.03125 9.55469 6.6875 10.5 6.6875C11.4453 6.6875 12.2474 7.03125 12.9062 7.71875C13.5938 8.3776 13.9375 9.17969 13.9375 10.125C13.9375 11.0703 13.5938 11.8867 12.9062 12.5742C12.2474 13.2331 11.4453 13.5625 10.5 13.5625C9.55469 13.5625 8.73828 13.2331 8.05078 12.5742C7.39193 11.8867 7.0625 11.0703 7.0625 10.125C7.0625 9.17969 7.39193 8.3776 8.05078 7.71875ZM11.9609 8.66406C11.5599 8.26302 11.0729 8.0625 10.5 8.0625C9.92708 8.0625 9.4401 8.26302 9.03906 8.66406C8.63802 9.0651 8.4375 9.55208 8.4375 10.125C8.4375 10.6979 8.63802 11.1849 9.03906 11.5859C9.4401 11.987 9.92708 12.1875 10.5 12.1875C11.0729 12.1875 11.5599 11.987 11.9609 11.5859C12.362 11.1849 12.5625 10.6979 12.5625 10.125C12.5625 9.55208 12.362 9.0651 11.9609 8.66406Z" fill="#B2B2B2"/>
<path d="M18.707 1.01562L19.1994 0.928732L19.113 0.438813L18.6226 0.522802L18.707 1.01562ZM19.2227 3.9375V4.4375H19.8186L19.715 3.85061L19.2227 3.9375ZM17.8047 3.9375L17.3111 4.01712L17.3789 4.4375H17.8047V3.9375ZM17.5898 2.60547L18.0835 2.52585L18.0031 2.02741L17.5054 2.11264L17.5898 2.60547ZM9.8125 3.9375V4.4375H9.85501L9.89691 4.43032L9.8125 3.9375ZM1.64844 3.9375L1.56402 3.44468L1.64844 4.4375V3.9375ZM0.875 4.625V4.125H0.375V4.625H0.875ZM20.125 4.625H20.625V4.125H20.125V4.625ZM20.125 15.625V16.125H20.625V15.625H20.125ZM0.875 15.625H0.375V16.125H0.875V15.625ZM4.26953 6V5.5H3.65963L3.77924 6.09806L4.26953 6ZM3.79688 7.58984L3.44332 7.23629L3.79688 7.58984ZM2.25 8.01953L2.34806 7.52924L1.75 7.40963V8.01953H2.25ZM2.25 12.2305H1.75V12.8404L2.34806 12.7208L2.25 12.2305ZM3.79688 12.7031L3.4283 13.041L3.44299 13.057L3.45901 13.0717L3.79688 12.7031ZM4.26953 14.25L3.77924 14.1519L3.65963 14.75H4.26953V14.25ZM16.7305 14.25V14.75H17.3404L17.2208 14.1519L16.7305 14.25ZM17.1602 12.7031L16.8066 12.3496L17.1602 12.7031ZM18.75 12.2305L18.6519 12.7208L19.25 12.8404V12.2305H18.75ZM18.75 8.01953H19.25V7.40963L18.6519 7.52924L18.75 8.01953ZM17.1602 7.58984L16.7916 7.92771L16.8063 7.94373L16.8223 7.95842L17.1602 7.58984ZM16.7305 6L17.2208 6.09806L17.3404 5.5H16.7305V6ZM8.05078 7.71875L7.69723 7.3652L8.05078 7.71875ZM12.9062 7.71875L12.5453 8.0647L12.5526 8.07238L12.5603 8.07974L12.9062 7.71875ZM12.9062 12.5742L12.5527 12.2207L12.9062 12.5742ZM8.05078 12.5742L7.68979 12.9202L7.69715 12.9279L7.70483 12.9352L8.05078 12.5742ZM11.9609 8.66406L11.6074 9.01762L11.9609 8.66406ZM9.03906 8.66406L9.39262 9.01762L9.03906 8.66406ZM9.03906 11.5859L8.68551 11.9395L9.03906 11.5859ZM11.9609 11.5859L12.3145 11.9395L11.9609 11.5859ZM18.707 1.01562L18.2146 1.10252L18.7303 4.02439L19.2227 3.9375L19.715 3.85061L19.1994 0.928732L18.707 1.01562ZM19.2227 3.9375V3.4375H17.8047V3.9375V4.4375H19.2227V3.9375ZM17.8047 3.9375L18.2983 3.85788L18.0835 2.52585L17.5898 2.60547L17.0962 2.68508L17.3111 4.01712L17.8047 3.9375ZM17.5898 2.60547L17.5054 2.11264L9.72809 3.44468L9.8125 3.9375L9.89691 4.43032L17.6742 3.09829L17.5898 2.60547ZM9.8125 3.9375V3.4375H1.64844V3.9375V4.4375H9.8125V3.9375ZM1.64844 3.9375L1.73285 4.43032L18.7914 1.50845L18.707 1.01562L18.6226 0.522802L1.56402 3.44468L1.64844 3.9375ZM0.875 4.625V5.125H1.5625V4.625V4.125H0.875V4.625ZM1.5625 4.625V5.125H2.59375V4.625V4.125H1.5625V4.625ZM2.59375 4.625V5.125H19.4375V4.625V4.125H2.59375V4.625ZM19.4375 4.625V5.125H20.125V4.625V4.125H19.4375V4.625ZM20.125 4.625H19.625V5.3125H20.125H20.625V4.625H20.125ZM20.125 5.3125H19.625V14.9375H20.125H20.625V5.3125H20.125ZM20.125 14.9375H19.625V15.625H20.125H20.625V14.9375H20.125ZM20.125 15.625V15.125H19.4375V15.625V16.125H20.125V15.625ZM19.4375 15.625V15.125H1.5625V15.625V16.125H19.4375V15.625ZM1.5625 15.625V15.125H0.875V15.625V16.125H1.5625V15.625ZM0.875 15.625H1.375V14.9375H0.875H0.375V15.625H0.875ZM0.875 14.9375H1.375V6.34375H0.875H0.375V14.9375H0.875ZM0.875 6.34375H1.375V5.3125H0.875H0.375V6.34375H0.875ZM0.875 5.3125H1.375V4.625H0.875H0.375V5.3125H0.875ZM4.26953 6L3.77924 6.09806C3.80524 6.22804 3.8125 6.3057 3.8125 6.34375H4.3125H4.8125C4.8125 6.20993 4.79112 6.05842 4.75982 5.90194L4.26953 6ZM4.3125 6.34375H3.8125C3.8125 6.69838 3.69312 6.98649 3.44332 7.23629L3.79688 7.58984L4.15043 7.9434C4.58813 7.5057 4.8125 6.96308 4.8125 6.34375H4.3125ZM3.79688 7.58984L3.44332 7.23629C3.23115 7.44846 2.96167 7.5625 2.59375 7.5625V8.0625V8.5625C3.19979 8.5625 3.73239 8.36143 4.15043 7.9434L3.79688 7.58984ZM2.59375 8.0625V7.5625C2.5557 7.5625 2.47804 7.55524 2.34806 7.52924L2.25 8.01953L2.15194 8.50982C2.30842 8.54112 2.45993 8.5625 2.59375 8.5625V8.0625ZM2.25 8.01953H1.75V12.2305H2.25H2.75V8.01953H2.25ZM2.25 12.2305L2.34806 12.7208C2.47804 12.6948 2.5557 12.6875 2.59375 12.6875V12.1875V11.6875C2.45993 11.6875 2.30842 11.7089 2.15194 11.7402L2.25 12.2305ZM2.59375 12.1875V12.6875C2.94759 12.6875 3.21254 12.8056 3.4283 13.041L3.79688 12.7031L4.16545 12.3653C3.751 11.9131 3.21386 11.6875 2.59375 11.6875V12.1875ZM3.79688 12.7031L3.45901 13.0717C3.69439 13.2875 3.8125 13.5524 3.8125 13.9062H4.3125H4.8125C4.8125 13.2861 4.58686 12.749 4.13474 12.3345L3.79688 12.7031ZM4.3125 13.9062H3.8125C3.8125 13.9443 3.80524 14.022 3.77924 14.1519L4.26953 14.25L4.75982 14.3481C4.79112 14.1916 4.8125 14.0401 4.8125 13.9062H4.3125ZM4.26953 14.25V14.75H16.7305V14.25V13.75H4.26953V14.25ZM16.7305 14.25L17.2208 14.1519C17.1948 14.022 17.1875 13.9443 17.1875 13.9062H16.6875H16.1875C16.1875 14.0401 16.2089 14.1916 16.2402 14.3481L16.7305 14.25ZM16.6875 13.9062H17.1875C17.1875 13.5383 17.3015 13.2689 17.5137 13.0567L17.1602 12.7031L16.8066 12.3496C16.3886 12.7676 16.1875 13.3002 16.1875 13.9062H16.6875ZM17.1602 12.7031L17.5137 13.0567C17.7635 12.8069 18.0516 12.6875 18.4062 12.6875V12.1875V11.6875C17.7869 11.6875 17.2443 11.9119 16.8066 12.3496L17.1602 12.7031ZM18.4062 12.1875V12.6875C18.4443 12.6875 18.522 12.6948 18.6519 12.7208L18.75 12.2305L18.8481 11.7402C18.6916 11.7089 18.5401 11.6875 18.4062 11.6875V12.1875ZM18.75 12.2305H19.25V8.01953H18.75H18.25V12.2305H18.75ZM18.75 8.01953L18.6519 7.52924C18.522 7.55524 18.4443 7.5625 18.4062 7.5625V8.0625V8.5625C18.5401 8.5625 18.6916 8.54112 18.8481 8.50982L18.75 8.01953ZM18.4062 8.0625V7.5625C18.0383 7.5625 17.7452 7.44781 17.498 7.22127L17.1602 7.58984L16.8223 7.95842C17.2627 8.36209 17.8003 8.5625 18.4062 8.5625V8.0625ZM17.1602 7.58984L17.5287 7.25198C17.3022 7.00484 17.1875 6.71173 17.1875 6.34375H16.6875H16.1875C16.1875 6.94973 16.3879 7.48734 16.7916 7.92771L17.1602 7.58984ZM16.6875 6.34375H17.1875C17.1875 6.3057 17.1948 6.22804 17.2208 6.09806L16.7305 6L16.2402 5.90194C16.2089 6.05842 16.1875 6.20993 16.1875 6.34375H16.6875ZM16.7305 6V5.5H4.26953V6V6.5H16.7305V6ZM8.05078 7.71875L8.40434 8.0723C9.00106 7.47558 9.69147 7.1875 10.5 7.1875V6.6875V6.1875C9.41791 6.1875 8.4755 6.58692 7.69723 7.3652L8.05078 7.71875ZM10.5 6.6875V7.1875C11.3079 7.1875 11.9799 7.47479 12.5453 8.0647L12.9062 7.71875L13.2672 7.3728C12.5149 6.58771 11.5827 6.1875 10.5 6.1875V6.6875ZM12.9062 7.71875L12.5603 8.07974C13.1502 8.64507 13.4375 9.31711 13.4375 10.125H13.9375H14.4375C14.4375 9.04226 14.0373 8.11013 13.2522 7.35776L12.9062 7.71875ZM13.9375 10.125H13.4375C13.4375 10.9335 13.1494 11.6239 12.5527 12.2207L12.9062 12.5742L13.2598 12.9278C14.0381 12.1495 14.4375 11.2071 14.4375 10.125H13.9375ZM12.9062 12.5742L12.5527 12.2207C11.9891 12.7842 11.3149 13.0625 10.5 13.0625V13.5625V14.0625C11.5758 14.0625 12.5057 13.6819 13.2598 12.9278L12.9062 12.5742ZM10.5 13.5625V13.0625C9.68466 13.0625 8.99191 12.7836 8.39673 12.2132L8.05078 12.5742L7.70483 12.9352C8.48465 13.6825 9.42471 14.0625 10.5 14.0625V13.5625ZM8.05078 12.5742L8.41178 12.2283C7.8414 11.6331 7.5625 10.9403 7.5625 10.125H7.0625H6.5625C6.5625 11.2003 6.94246 12.1404 7.68979 12.9202L8.05078 12.5742ZM7.0625 10.125H7.5625C7.5625 9.31013 7.84077 8.63587 8.40434 8.0723L8.05078 7.71875L7.69723 7.3652C6.94309 8.11934 6.5625 9.04924 6.5625 10.125H7.0625ZM11.9609 8.66406L12.3145 8.31051C11.8186 7.81463 11.204 7.5625 10.5 7.5625V8.0625V8.5625C10.9418 8.5625 11.3012 8.71141 11.6074 9.01762L11.9609 8.66406ZM10.5 8.0625V7.5625C9.79599 7.5625 9.18138 7.81463 8.68551 8.31051L9.03906 8.66406L9.39262 9.01762C9.69882 8.71141 10.0582 8.5625 10.5 8.5625V8.0625ZM9.03906 8.66406L8.68551 8.31051C8.18963 8.80638 7.9375 9.42099 7.9375 10.125H8.4375H8.9375C8.9375 9.68318 9.08641 9.32382 9.39262 9.01762L9.03906 8.66406ZM8.4375 10.125H7.9375C7.9375 10.829 8.18963 11.4436 8.68551 11.9395L9.03906 11.5859L9.39262 11.2324C9.08641 10.9262 8.9375 10.5668 8.9375 10.125H8.4375ZM9.03906 11.5859L8.68551 11.9395C9.18138 12.4354 9.79599 12.6875 10.5 12.6875V12.1875V11.6875C10.0582 11.6875 9.69882 11.5386 9.39262 11.2324L9.03906 11.5859ZM10.5 12.1875V12.6875C11.204 12.6875 11.8186 12.4354 12.3145 11.9395L11.9609 11.5859L11.6074 11.2324C11.3012 11.5386 10.9418 11.6875 10.5 11.6875V12.1875ZM11.9609 11.5859L12.3145 11.9395C12.8104 11.4436 13.0625 10.829 13.0625 10.125H12.5625H12.0625C12.0625 10.5668 11.9136 10.9262 11.6074 11.2324L11.9609 11.5859ZM12.5625 10.125H13.0625C13.0625 9.42099 12.8104 8.80638 12.3145 8.31051L11.9609 8.66406L11.6074 9.01762C11.9136 9.32382 12.0625 9.68318 12.0625 10.125H12.5625Z" fill="#B2B2B2"/>
</svg>
